/* XPM */
static char * wxhex_xpm[] = {
"32 32 825 2",
"  	c None",
". 	c #BFE4F2",
"+ 	c #CCEDF6",
"@ 	c #BFE9F4",
"# 	c #D0F6FC",
"$ 	c #D0F5FB",
"% 	c #D1F5FB",
"& 	c #D9F6FB",
"* 	c #DEF7FB",
"= 	c #DDF7FB",
"- 	c #DFF7FB",
"; 	c #E1F8FB",
"> 	c #E9F9FB",
", 	c #EBF8FB",
"' 	c #ECF9FB",
") 	c #EDFAFC",
"! 	c #E2F2F6",
"~ 	c #D7E5EB",
"{ 	c #E9F1F6",
"] 	c #C3EEF9",
"^ 	c #AAEDFA",
"/ 	c #9CEDFB",
"( 	c #95EBFA",
"_ 	c #97EBFA",
": 	c #97ECFA",
"< 	c #99ECFB",
"[ 	c #A7EEFB",
"} 	c #B0F0FB",
"| 	c #B2F0FB",
"1 	c #B3F0FB",
"2 	c #B8F1FB",
"3 	c #C8F4FB",
"4 	c #CAF4FB",
"5 	c #CBF4FB",
"6 	c #CDF4FB",
"7 	c #CEF5FB",
"8 	c #D4F6FB",
"9 	c #DCF8FC",
"0 	c #E3F7FA",
"a 	c #E6F1F5",
"b 	c #97CADF",
"c 	c #B4EDFA",
"d 	c #82E3F9",
"e 	c #74E2FA",
"f 	c #72E3FB",
"g 	c #7CE4FB",
"h 	c #8CE7FA",
"i 	c #8DE8FA",
"j 	c #8EE8FB",
"k 	c #9DEAFB",
"l 	c #AAEDFB",
"m 	c #A9EEFB",
"n 	c #ABEEFB",
"o 	c #ACEEFB",
"p 	c #B1EFFB",
"q 	c #C3F2FB",
"r 	c #C6F3FB",
"s 	c #C7F3FC",
"t 	c #C9F4FC",
"u 	c #CAF4FC",
"v 	c #CDF5FC",
"w 	c #CEF5FC",
"x 	c #D0F5FC",
"y 	c #D4F4FA",
"z 	c #E9F7FA",
"A 	c #CCDCE5",
"B 	c #ABEAFA",
"C 	c #71DDF9",
"D 	c #6ADDFB",
"E 	c #6CDDFA",
"F 	c #6DDDFA",
"G 	c #75DFFA",
"H 	c #86E2FA",
"I 	c #87E3FA",
"J 	c #88E3FA",
"K 	c #89E3FA",
"L 	c #96E7FA",
"M 	c #A5E9FA",
"N 	c #A5EAFA",
"O 	c #A7EAFA",
"P 	c #A8EBFA",
"Q 	c #ACEBFA",
"R 	c #BEEFFA",
"S 	c #C3F0FB",
"T 	c #C4F0FC",
"U 	c #C6F1FB",
"V 	c #C7F1FC",
"W 	c #C9F2FB",
"X 	c #CBF2FC",
"Y 	c #CDF3FC",
"Z 	c #CEF3FB",
"` 	c #E8F7FA",
" .	c #B1E9F8",
"..	c #62D4F8",
"+.	c #5BD4FA",
"@.	c #66D7F9",
"#.	c #66D8F9",
"$.	c #67D7F9",
"%.	c #67D8F9",
"&.	c #6EDAF9",
"*.	c #81DEF9",
"=.	c #82DFF9",
"-.	c #84DFF9",
";.	c #84E0FA",
">.	c #91E2F9",
",.	c #A2E6FA",
"'.	c #A2E7FB",
").	c #A3E7FB",
"!.	c #A6E7FA",
"~.	c #A7E8FB",
"{.	c #BAEDFA",
"].	c #C0EFFB",
"^.	c #C1EFFC",
"/.	c #C3EFFC",
"(.	c #C5F0FB",
"_.	c #C7F0FC",
":.	c #C9F1FB",
"<.	c #CAF2FC",
"[.	c #CFF1FA",
"}.	c #ACE0F2",
"|.	c #8ADDF8",
"1.	c #48CBF9",
"2.	c #46CBF8",
"3.	c #54CFF8",
"4.	c #60D2F8",
"5.	c #5FD2F8",
"6.	c #61D3F8",
"7.	c #65D4F8",
"8.	c #7AD9F8",
"9.	c #7BDAF8",
"0.	c #7CDAF9",
"a.	c #7EDAF9",
"b.	c #7EDBF9",
"c.	c #89DEF9",
"d.	c #9BE2FA",
"e.	c #9CE3FA",
"f.	c #9EE4FB",
"g.	c #A0E4FA",
"h.	c #A3E5FB",
"i.	c #B5EAFA",
"j.	c #BCECFA",
"k.	c #BDECFB",
"l.	c #C0EDFC",
"m.	c #C2EEFB",
"n.	c #C4EEFB",
"o.	c #C5EFFC",
"p.	c #C7EFFC",
"q.	c #DDF3FA",
"r.	c #ECF4F6",
"s.	c #A8E3F5",
"t.	c #64CFF8",
"u.	c #3EC5F8",
"v.	c #40C5F8",
"w.	c #3FC5F8",
"x.	c #4AC9F8",
"y.	c #58CCF8",
"z.	c #57CCF8",
"A.	c #5ACDF8",
"B.	c #59CDF8",
"C.	c #5ECEF8",
"D.	c #72D4F8",
"E.	c #75D5F9",
"F.	c #77D6F8",
"G.	c #78D6F8",
"H.	c #78D6F9",
"I.	c #81D9F9",
"J.	c #96DFF9",
"K.	c #98DFFA",
"L.	c #9AE0FB",
"M.	c #9BE1FA",
"N.	c #9EE2FB",
"O.	c #AFE6FA",
"P.	c #B9EAFA",
"Q.	c #B9E9FB",
"R.	c #BBEBFC",
"S.	c #BEEBFC",
"T.	c #C0ECFB",
"U.	c #C1ECFC",
"V.	c #D0F0FC",
"W.	c #D8E6EB",
"X.	c #95DAF3",
"Y.	c #49C3F7",
"Z.	c #38BEF7",
"`.	c #39BFF7",
" +	c #3AC0F7",
".+	c #38BFF7",
"++	c #43C3F7",
"@+	c #51C7F7",
"#+	c #52C7F7",
"$+	c #52C8F7",
"%+	c #53C8F7",
"&+	c #56C9F7",
"*+	c #6CD0F8",
"=+	c #71D2F9",
"-+	c #71D2F8",
";+	c #73D2F8",
">+	c #73D2F9",
",+	c #7CD5FA",
"'+	c #92DDFA",
")+	c #94DDFA",
"!+	c #95DDFB",
"~+	c #97DEFB",
"{+	c #99DEFB",
"]+	c #ABE4FB",
"^+	c #B6E7FB",
"/+	c #B7E7FB",
"(+	c #B9E8FC",
"_+	c #BBE9FC",
":+	c #BDE9FC",
"<+	c #C3EAFB",
"[+	c #E0F1F6",
"}+	c #9DE3FA",
"|+	c #39BAF5",
"1+	c #2EB8F6",
"2+	c #27B5F6",
"3+	c #28B6F6",
"4+	c #30B9F6",
"5+	c #39BCF6",
"6+	c #49C1F6",
"7+	c #41BFF6",
"8+	c #41BFF7",
"9+	c #42BFF7",
"0+	c #49C1F7",
"a+	c #4FC3F7",
"b+	c #65CAF8",
"c+	c #63CAF8",
"d+	c #64CAF8",
"e+	c #69CCF9",
"f+	c #75D0F9",
"g+	c #8BD7F9",
"h+	c #8FD9FA",
"i+	c #90D9FA",
"j+	c #92DAFA",
"k+	c #93DAFA",
"l+	c #A5E0FA",
"m+	c #B2E4FB",
"n+	c #B3E5FB",
"o+	c #B6E6FB",
"p+	c #B7E6FB",
"q+	c #BAE6FA",
"r+	c #E7F6FB",
"s+	c #99E0FA",
"t+	c #2EB2F5",
"u+	c #3EBAF7",
"v+	c #8ED7FA",
"w+	c #8CD7FA",
"x+	c #83D3FA",
"y+	c #2BB4F7",
"z+	c #27B3F6",
"A+	c #41BBF7",
"B+	c #97DAFA",
"C+	c #99DBFA",
"D+	c #A0DDFA",
"E+	c #60C6F8",
"F+	c #43BDF7",
"G+	c #45BDF7",
"H+	c #92D8FA",
"I+	c #AEE3FB",
"J+	c #B1E3FB",
"K+	c #86D4FA",
"L+	c #63C8F8",
"M+	c #6DCBF9",
"N+	c #86D4F9",
"O+	c #8CD6F9",
"P+	c #8ED7F9",
"Q+	c #8FD7F9",
"R+	c #B0E2FB",
"S+	c #AFE2FB",
"T+	c #B2E3FB",
"U+	c #B5E3F9",
"V+	c #E5F4FB",
"W+	c #96DEFA",
"X+	c #27ACF4",
"Y+	c #28AEF5",
"Z+	c #FFFFFF",
"`+	c #32B2F6",
" @	c #18A9F5",
".@	c #70C9F9",
"+@	c #B6E2FB",
"@@	c #32B3F6",
"#@	c #44B9F7",
"$@	c #E9F6FD",
"%@	c #8ED5F9",
"&@	c #58C1F7",
"*@	c #61C5F7",
"=@	c #67C6F8",
"-@	c #80D0F9",
";@	c #86D2F8",
">@	c #87D2F8",
",@	c #89D4F8",
"'@	c #8AD3F9",
")@	c #9AD9F9",
"!@	c #ABE0FA",
"~@	c #B0E0F9",
"{@	c #E2F3FB",
"]@	c #93DCFA",
"^@	c #24A8F3",
"/@	c #079FF4",
"(@	c #DBF0FD",
"_@	c #68C3F8",
":@	c #08A0F4",
"<@	c #B1E0FB",
"[@	c #FEFEFE",
"}@	c #FDFEFF",
"|@	c #F4FAFD",
"1@	c #27ACF5",
"2@	c #4FBAF7",
"3@	c #FDFEFE",
"4@	c #5DBFF7",
"5@	c #4DBAF7",
"6@	c #53BCF7",
"7@	c #58BEF7",
"8@	c #60C2F7",
"9@	c #78CCF8",
"0@	c #80CEF8",
"a@	c #7CCCF8",
"b@	c #7FCDF8",
"c@	c #92D5F8",
"d@	c #A6DCF9",
"e@	c #A9DDF8",
"f@	c #DFF2FB",
"g@	c #90DAFA",
"h@	c #1CA2F3",
"i@	c #069BF4",
"j@	c #9BD6FA",
"k@	c #A5DAFA",
"l@	c #0095F3",
"m@	c #F7FBFE",
"n@	c #FCFEFE",
"o@	c #47B5F6",
"p@	c #65C1F7",
"q@	c #E0F2FD",
"r@	c #55BCF7",
"s@	c #9ED9FA",
"t@	c #97D5FA",
"u@	c #7ECCF8",
"v@	c #4DB8F6",
"w@	c #57BCF6",
"x@	c #77C8F7",
"y@	c #AEDFFA",
"z@	c #B0DFFB",
"A@	c #AFDFFA",
"B@	c #80CCF7",
"C@	c #8DD1F8",
"D@	c #A5D9F8",
"E@	c #DDF1FB",
"F@	c #8CD8FA",
"G@	c #149CF2",
"H@	c #0096F3",
"I@	c #53B8F7",
"J@	c #D6EEFC",
"K@	c #26A5F4",
"L@	c #FAFDFE",
"M@	c #7BC8F8",
"N@	c #92D2F9",
"O@	c #A6DAFA",
"P@	c #23A5F4",
"Q@	c #F8FCFE",
"R@	c #72C5F7",
"S@	c #3EB0F5",
"T@	c #D5EDFC",
"U@	c #AFDDF9",
"V@	c #75C6F6",
"W@	c #7BC9F6",
"X@	c #8BCEF6",
"Y@	c #DAF0FA",
"Z@	c #8BD8FA",
"`@	c #1199F2",
" #	c #0094F3",
".#	c #28A5F5",
"+#	c #FCFDFE",
"@#	c #E1F2FD",
"##	c #A0D7FA",
"$#	c #85CCF9",
"%#	c #F6FBFE",
"&#	c #A7DAFA",
"*#	c #D4ECFD",
"=#	c #67BFF7",
"-#	c #159DF4",
";#	c #50B5F6",
">#	c #E9F5FD",
",#	c #AFDCFB",
"'#	c #CDE9FC",
")#	c #66BEF6",
"!#	c #74C5F7",
"~#	c #75C4F7",
"{#	c #7AC7F5",
"]#	c #CDEBFA",
"^#	c #119AF2",
"/#	c #0396F3",
"(#	c #0A99F4",
"_#	c #DDF1FD",
":#	c #F9FCFE",
"<#	c #149DF4",
"[#	c #E5F4FD",
"}#	c #F3FAFE",
"|#	c #3DAEF6",
"1#	c #22A2F4",
"2#	c #189EF4",
"3#	c #92D1FA",
"4#	c #51B5F6",
"5#	c #5CBAF6",
"6#	c #72C3F7",
"7#	c #71C3F7",
"8#	c #79C5F5",
"9#	c #C9EAFA",
"0#	c #0697F4",
"a#	c #008EF2",
"b#	c #B5E0FB",
"c#	c #0089F2",
"d#	c #95D2FA",
"e#	c #DFF1FD",
"f#	c #29A5F5",
"g#	c #21A2F4",
"h#	c #26A4F5",
"i#	c #1EA1F4",
"j#	c #FFFFFE",
"k#	c #9FD6FA",
"l#	c #38ABF5",
"m#	c #4BB3F5",
"n#	c #5CBBF6",
"o#	c #70C2F7",
"p#	c #75C4F5",
"q#	c #C7E9FA",
"r#	c #119AF3",
"s#	c #0092F3",
"t#	c #76C6F9",
"u#	c #90D0FA",
"v#	c #008FF3",
"w#	c #49B3F6",
"x#	c #B6E1FC",
"y#	c #0898F3",
"z#	c #23A2F5",
"A#	c #119BF4",
"B#	c #ADDCFA",
"C#	c #FEFFFF",
"D#	c #58B9F6",
"E#	c #42B0F6",
"F#	c #49B2F6",
"G#	c #5ABAF6",
"H#	c #74C3F6",
"I#	c #C6E9FA",
"J#	c #8AD6F7",
"K#	c #1095EC",
"L#	c #0593EE",
"M#	c #0493ED",
"N#	c #2DA3EF",
"O#	c #FFFFFA",
"P#	c #F9F9F9",
"Q#	c #FFFFFB",
"R#	c #39A9F1",
"S#	c #0091EF",
"T#	c #1A9DF0",
"U#	c #EAF3F9",
"V#	c #FFFCFB",
"W#	c #FAFBFB",
"X#	c #FFFFFC",
"Y#	c #7BC6F5",
"Z#	c #008EF0",
"`#	c #0895F0",
" $	c #69BEF5",
".$	c #D5ECFA",
"+$	c #81C9F6",
"@$	c #FFFFFD",
"#$	c #DAEEFB",
"$$	c #3AABF4",
"%$	c #4AB2F4",
"&$	c #47B1F4",
"*$	c #5CB9F4",
"=$	c #C5E8FA",
"-$	c #8AD3F4",
";$	c #1091E3",
">$	c #058EE4",
",$	c #0B91E5",
"'$	c #028DE5",
")$	c #F6F2F0",
"!$	c #FFF6F1",
"~$	c #FFF7F1",
"{$	c #E3EBF0",
"]$	c #1293E6",
"^$	c #058EE6",
"/$	c #0088E5",
"($	c #BCDBEE",
"_$	c #FFF9F2",
":$	c #F9F4F2",
"<$	c #FFFBF3",
"[$	c #38A4E9",
"}$	c #008BE7",
"|$	c #1F9AE8",
"1$	c #FFF9F3",
"2$	c #FFFAF4",
"3$	c #F6F5F3",
"4$	c #35A4EA",
"5$	c #0C92E9",
"6$	c #AAD5F0",
"7$	c #FFFBF5",
"8$	c #FFFFF7",
"9$	c #A9D5F2",
"0$	c #3EA9ED",
"a$	c #47ADEE",
"b$	c #4DAFEE",
"c$	c #B7E2F7",
"d$	c #8AD1F1",
"e$	c #118CDD",
"f$	c #0288DD",
"g$	c #0086DD",
"h$	c #75B8E3",
"i$	c #9BC8E5",
"j$	c #96C6E5",
"k$	c #6AB3E3",
"l$	c #0086DE",
"m$	c #078ADF",
"n$	c #48A6E1",
"o$	c #97C7E6",
"p$	c #92C5E6",
"q$	c #9DCAE6",
"r$	c #078BDF",
"s$	c #0088DF",
"t$	c #62B1E4",
"u$	c #98C8E7",
"v$	c #9ECAE8",
"w$	c #5AAFE6",
"x$	c #1492E2",
"y$	c #1A94E3",
"z$	c #2498E3",
"A$	c #9BCBE9",
"B$	c #A3CEEA",
"C$	c #A9D2EC",
"D$	c #4DACE8",
"E$	c #3FA6E8",
"F$	c #4EABE8",
"G$	c #B1DFF6",
"H$	c #8ACEEF",
"I$	c #0582D4",
"J$	c #439DD8",
"K$	c #80B7DA",
"L$	c #79B4DA",
"M$	c #59A6D9",
"N$	c #50A3D9",
"O$	c #67ADDA",
"P$	c #6FB0DA",
"Q$	c #77B4DB",
"R$	c #5AA8DA",
"S$	c #65ADDB",
"T$	c #73B2DC",
"U$	c #73B3DC",
"V$	c #5DA9DB",
"W$	c #50A5DA",
"X$	c #5DAADB",
"Y$	c #5FABDC",
"Z$	c #75B4DC",
"`$	c #70B2DC",
" %	c #52A5DB",
".%	c #5BAADD",
"+%	c #7FBAE0",
"@%	c #8BBFE1",
"#%	c #7DBAE0",
"$%	c #62AEDF",
"%%	c #68B1E0",
"&%	c #82BCE1",
"*%	c #9EC9E5",
"=%	c #72B7E4",
"-%	c #42A2E1",
";%	c #B0DDF4",
">%	c #89CCEC",
",%	c #017CCC",
"'%	c #57A1D0",
")%	c #A6C1D4",
"!%	c #A1C0D3",
"~%	c #2C8FCF",
"{%	c #0982CE",
"]%	c #88B6D3",
"^%	c #9DBED4",
"/%	c #90B9D4",
"(%	c #007ACD",
"_%	c #2F91D0",
":%	c #B3C8D6",
"<%	c #56A2D2",
"[%	c #0580CF",
"}%	c #027FCF",
"|%	c #0280CE",
"1%	c #0280CF",
"2%	c #248DD0",
"3%	c #A3C2D6",
"4%	c #6EACD4",
"5%	c #007ED0",
"6%	c #248ED2",
"7%	c #B0CADB",
"8%	c #3899D6",
"9%	c #198CD5",
"0%	c #7EB6D9",
"a%	c #B0CBDC",
"b%	c #B2CCDD",
"c%	c #7DB7DD",
"d%	c #3D9DDB",
"e%	c #AEDAF1",
"f%	c #8ACBEA",
"g%	c #0479C5",
"h%	c #4093C8",
"i%	c #97B7CC",
"j%	c #94B6CB",
"k%	c #2588C7",
"l%	c #057BC6",
"m%	c #84B0CC",
"n%	c #99B9CD",
"o%	c #8CB3CC",
"p%	c #0074C6",
"q%	c #2789C8",
"r%	c #9EBBCD",
"s%	c #0078C7",
"t%	c #0C7EC8",
"u%	c #3991C9",
"v%	c #3891CA",
"w%	c #2188C9",
"x%	c #0076C7",
"y%	c #5EA1CC",
"z%	c #A2BDCF",
"A%	c #3892CB",
"B%	c #0077C8",
"C%	c #2188CB",
"D%	c #1585CE",
"E%	c #4C9CD0",
"F%	c #A6C2D4",
"G%	c #A5C2D5",
"H%	c #57A2D1",
"I%	c #3594D3",
"J%	c #AEDAF0",
"K%	c #7FBFDE",
"L%	c #127CC0",
"M%	c #2482BE",
"N%	c #8DAEC3",
"O%	c #8DAFC3",
"P%	c #2583BF",
"Q%	c #0074BD",
"R%	c #0072BE",
"S%	c #0071BE",
"T%	c #0275BF",
"U%	c #2684C0",
"V%	c #97B2C4",
"W%	c #0072BF",
"X%	c #0576C0",
"Y%	c #0074BF",
"Z%	c #0074C0",
"`%	c #79A7C5",
" &	c #8EB0C6",
".&	c #8FB1C6",
"+&	c #147EC1",
"@&	c #1B82C3",
"#&	c #98B7CB",
"$&	c #98B8CC",
"%&	c #9DBACD",
"&&	c #3D92C9",
"*&	c #2C8DCB",
"=&	c #9ACBE4",
"-&	c #95CBE4",
";&	c #308AC2",
">&	c #006EB5",
",&	c #84A4B9",
"'&	c #85A5BA",
")&	c #237DB7",
"!&	c #0270B6",
"~&	c #3987B8",
"{&	c #428AB9",
"]&	c #3C88B9",
"^&	c #006EB7",
"/&	c #247EB8",
"(&	c #91ACBD",
"_&	c #006DB7",
":&	c #0F76B8",
"<&	c #478EBB",
"[&	c #428CBB",
"}&	c #408ABB",
"|&	c #6D9DBD",
"1&	c #8BAABE",
"2&	c #89AABF",
"3&	c #81A6BE",
"4&	c #0C76B9",
"5&	c #0070B9",
"6&	c #0F78B9",
"7&	c #81A7BF",
"8&	c #93B2C5",
"9&	c #91B1C6",
"0&	c #96B3C5",
"a&	c #1B80C1",
"b&	c #4899CC",
"c&	c #A5D2E8",
"d&	c #A1D1E6",
"e&	c #5DA3CC",
"f&	c #0068AD",
"g&	c #3C81AE",
"h&	c #8BA0AE",
"i&	c #1E76AF",
"j&	c #026CAF",
"k&	c #7297B0",
"l&	c #869FB0",
"m&	c #7B9CB1",
"n&	c #0066AF",
"o&	c #2078B0",
"p&	c #8AA2B2",
"q&	c #006BAF",
"r&	c #046DAF",
"s&	c #2178B1",
"t&	c #2078B1",
"u&	c #1F78B2",
"v&	c #1B76B1",
"w&	c #7E9FB5",
"x&	c #86A2B5",
"y&	c #227AB2",
"z&	c #0069B1",
"A&	c #297DB2",
"B&	c #006BB1",
"C&	c #217AB3",
"D&	c #88A4B7",
"E&	c #98AEBE",
"F&	c #5393BB",
"G&	c #187AB9",
"H&	c #70AED3",
"I&	c #ADD7E7",
"J&	c #95C8E0",
"K&	c #1D74AC",
"L&	c #0063A5",
"M&	c #5786A4",
"N&	c #3077A5",
"O&	c #0A69A6",
"P&	c #668DA5",
"Q&	c #7693A5",
"R&	c #6D8FA5",
"S&	c #0066A7",
"T&	c #2875A7",
"U&	c #8599A6",
"V&	c #5085A7",
"W&	c #0C6BA7",
"X&	c #0869A7",
"Y&	c #0869A8",
"Z&	c #0769A8",
"`&	c #7C97A9",
" *	c #4A84A9",
".*	c #0168A9",
"+*	c #2374A9",
"@*	c #869CAA",
"#*	c #2375A9",
"$*	c #0067A9",
"%*	c #5789AA",
"&*	c #5E8EAC",
"**	c #1070AF",
"=*	c #3383B8",
"-*	c #A3CFE5",
";*	c #77B0D0",
">*	c #0C649E",
",*	c #005F9D",
"'*	c #30729C",
")*	c #67869A",
"!*	c #708A9B",
"~*	c #748B9B",
"{*	c #758C9C",
"]*	c #6C899C",
"^*	c #6F8B9C",
"/*	c #768E9D",
"(*	c #7B909D",
"_*	c #748D9E",
":*	c #6E8B9E",
"<*	c #6F8B9E",
"[*	c #6F8C9F",
"}*	c #79909F",
"|*	c #6D8C9F",
"1*	c #6F8CA0",
"2*	c #7790A1",
"3*	c #7891A1",
"4*	c #7490A1",
"5*	c #6A8CA1",
"6*	c #3076A2",
"7*	c #0061A0",
"8*	c #0C67A2",
"9*	c #83B8D5",
"0*	c #82AFC5",
"a*	c #76ADCC",
"b*	c #1D6C9F",
"c*	c #005B96",
"d*	c #005B95",
"e*	c #1B6594",
"f*	c #2E6C94",
"g*	c #397194",
"h*	c #3B7194",
"i*	c #3A7194",
"j*	c #397094",
"k*	c #3A7295",
"l*	c #3B7295",
"m*	c #3C7296",
"n*	c #3A7296",
"o*	c #3B7396",
"p*	c #3C7397",
"q*	c #3C7497",
"r*	c #2F6F97",
"s*	c #1D6898",
"t*	c #015D98",
"u*	c #005D99",
"v*	c #1D6EA2",
"w*	c #77AFCE",
"x*	c #82B0C7",
"y*	c #8FBDD3",
"z*	c #5D97B9",
"A*	c #3077A4",
"B*	c #126296",
"C*	c #055A91",
"D*	c #045A91",
"E*	c #045A92",
"F*	c #045B92",
"G*	c #045A93",
"H*	c #035B94",
"I*	c #055B93",
"J*	c #116499",
"K*	c #2F79A7",
"L*	c #5D98BB",
"M*	c #8FBDD4",
"N*	c #A3CCE0",
"O*	c #83AEC4",
"P*	c #7FAFC8",
"Q*	c #89B8D1",
"R*	c #88B7D1",
"S*	c #88B8D1",
"T*	c #88B7D0",
"U*	c #89B8D2",
"V*	c #7FB0CA",
"W*	c #83AFC4",
"X*	c #A4CEE1",
"          . + @ # $ % & * = * - ; > > > , ' ' ) ! ~ {           ",
"        ] ^ / / ( _ : < [ } } | 1 2 3 4 5 6 7 $ 8 9 0 a         ",
"    b c d e f g h h i j j k l m n o p q r s t u v w x y z A     ",
"    B C D E F E G H I J K K L M N O P Q R S T U V W X Y Z `     ",
"   ...+.@.#.@.$.%.&.*.=.=.-.;.>.,.'.).!.~.{.].^./.(._.:.<.[.a   ",
"}.|.1.2.3.4.5.5.6.4.7.8.9.0.a.b.c.d.e.f.g.h.i.j.k.l.m.n.o.p.q.r.",
"s.t.u.v.w.x.y.z.y.A.B.C.D.E.F.G.H.I.J.K.L.M.N.O.P.Q.R.S.T.U.V.W.",
"X.Y.Z.`. +.+++@+@+#+$+%+&+*+=+-+;+>+,+'+)+!+~+{+]+^+/+(+_+:+<+[+",
"}+|+1+2+2+3+4+5+6+7+8+9+0+a+b+b+c+d+e+f+g+h+i+j+k+l+m+n+o+p+q+r+",
"s+t+u+v+w+x+y+z+A+B+C+D+E+F+G+H+I+J+K+L+M+N+O+O+P+Q+D+R+S+T+U+V+",
"W+X+Y+Z+Z+Z+`+ @.@Z+Z+Z++@@@#@$@Z+Z+%@&@*@=@-@;@>@,@'@)@!@!@~@{@",
"]@^@/@(@Z+Z+_@:@<@Z+[@}@|@1@2@Z+Z+3@4@5@6@7@8@9@0@a@b@0@c@d@e@f@",
"g@h@i@j@Z+Z+k@l@m@n@Z+3@Z+o@p@Z+Z+q@r@s@t@u@v@w@x@y@z@A@B@C@D@E@",
"F@G@H@I@Z+Z+J@K@Z+n@L@3@Z+M@N@Z+Z+O@P@Q@Z+Z+R@S@T@Z+Z+U@V@W@X@Y@",
"Z@`@ #.#+#Z+@###Z+Z+$#%#Z+&#*#Z+Z+=#-#;#Z+Z+>#,#Z+Z+'#)#!#~#{#]#",
"Z@^#/#(#_#Z+:#:#Z+Z+<#[#Z+}#3@Z+Z+|#1#2#3#Z+Z+Z+Z+}#4#5#6#7#8#9#",
"Z@^#0#a#b#Z+Z+Z+Z+@#c#d#Z+Z+Z+Z+e#f#g#h#i#j#Z+[@Z+k#l#m#n#o#p#q#",
"Z@r#0#s#t#Z+Z+Z+Z+u#v#w#Z+Z+Z+Z+x#y#z#A#B#Z+Z+Z+C#Z+D#E#F#G#H#I#",
"J#K#L#M#N#O#P#P#Q#R#S#T#U#V#W#X#Y#Z#`# $X#X#.$+$@$@$#$$$%$&$*$=$",
"-$;$>$,$'$)$!$~${$]$^$/$($_$:$<$[$}$|$1$2$3$4$5$6$7$8$9$0$a$b$c$",
"d$e$f$f$g$h$i$j$k$l$m$l$n$o$p$q$r$s$t$u$v$w$x$y$z$A$B$C$D$E$F$G$",
"H$I$J$K$L$M$N$O$P$Q$R$S$T$U$V$W$X$Y$Z$`$ %.%+%@%#%$%%%&%*%=%-%;%",
">%,%'%)%!%~%{%]%^%/%(%_%:%<%[%}%|%1%2%3%4%5%6%7%8%9%0%a%b%c%d%e%",
"f%g%h%i%j%k%l%m%n%o%p%q%r%s%t%u%v%w%x%y%z%A%B%C%D%E%F%^%G%H%I%J%",
"K%L%M%N%O%P%Q%R%S%R%T%U%V%W%X%Y%Z%Z%Z%`% &.&+&Z%@&#&$&i%%&&&*&=&",
"-&;&>&,&'&)&!&~&{&]&^&/&(&_&:&<&[&}&|&1&2&3&4&5&6&7&8&9&0&a&b&c&",
"d&e&f&g&h&i&j&k&l&m&n&o&p&q&r&s&t&u&v&w&x&y&z&A&B&C&D&E&F&G&H&I&",
"  J&K&L&M&N&O&P&Q&R&S&T&U&V&W&X&Y&Z&Y&`& *.*+*@*#*$*%*&***=*-*  ",
"    ;*>*,*'*)*!*~*{*]*^*/*(*_*:*<*[*[*}*|*1*2*3*4*5*6*7*8*9*    ",
"    0*a*b*c*d*e*f*g*h*i*j*g*k*l*l*m*m*n*o*p*q*r*s*t*u*v*w*x*    ",
"        y*z*A*B*C*D*D*D*E*F*E*E*E*E*G*G*G*G*H*I*J*K*L*M*        ",
"          N*O*P*Q*R*R*S*T*S*S*S*S*S*S*S*S*S*R*U*V*W*X*          "};
